<svg width="281" height="53" viewBox="0 0 281 53" fill="none" xmlns="http://www.w3.org/2000/svg">
<rect x="0.5" y="0.5" width="280" height="52" rx="26" stroke="#D9D9D9"/>
<path d="M253.707 26.7071C254.098 26.3166 254.098 25.6834 253.707 25.2929L247.343 18.9289C246.953 18.5384 246.319 18.5384 245.929 18.9289C245.538 19.3195 245.538 19.9526 245.929 20.3431L251.586 26L245.929 31.6569C245.538 32.0474 245.538 32.6805 245.929 33.0711C246.319 33.4616 246.953 33.4616 247.343 33.0711L253.707 26.7071ZM203 27H253V25H203V27Z" fill="#F5F5F5"/>
<path d="M32.7139 22.2756C32.6381 21.6032 32.3256 21.0824 31.7764 20.7131C31.2271 20.339 30.5358 20.152 29.7025 20.152C29.1059 20.152 28.5898 20.2467 28.1542 20.4361C27.7186 20.6207 27.3801 20.8764 27.1386 21.2031C26.9018 21.5251 26.7835 21.892 26.7835 22.304C26.7835 22.6496 26.864 22.9479 27.0249 23.1989C27.1907 23.4498 27.4061 23.6605 27.6713 23.831C27.9411 23.9967 28.23 24.1364 28.5377 24.25C28.8455 24.3589 29.1414 24.4489 29.4255 24.5199L30.846 24.8892C31.31 25.0028 31.7858 25.1567 32.2735 25.3509C32.7612 25.545 33.2134 25.8007 33.6301 26.1179C34.0467 26.4351 34.3829 26.8281 34.6386 27.2969C34.899 27.7656 35.0292 28.3267 35.0292 28.9801C35.0292 29.804 34.8161 30.5355 34.39 31.1747C33.9686 31.8139 33.3554 32.3182 32.5505 32.6875C31.7503 33.0568 30.782 33.2415 29.6457 33.2415C28.5567 33.2415 27.6144 33.0687 26.819 32.723C26.0235 32.3774 25.4009 31.8873 24.9511 31.2528C24.5013 30.6136 24.2527 29.8561 24.2053 28.9801H26.407C26.4497 29.5057 26.6201 29.9437 26.9184 30.294C27.2214 30.6397 27.6073 30.8977 28.0761 31.0682C28.5496 31.2339 29.068 31.3168 29.6315 31.3168C30.2517 31.3168 30.8034 31.2197 31.2863 31.0256C31.774 30.8267 32.1575 30.5521 32.4369 30.2017C32.7162 29.8466 32.8559 29.4323 32.8559 28.9588C32.8559 28.5279 32.7328 28.1752 32.4866 27.9006C32.2451 27.6259 31.916 27.3987 31.4994 27.2188C31.0874 27.0388 30.6211 26.8802 30.1002 26.7429L28.3815 26.2741C27.2167 25.9569 26.2934 25.4905 25.6116 24.875C24.9345 24.2595 24.596 23.4451 24.596 22.4318C24.596 21.5937 24.8232 20.8622 25.2778 20.2372C25.7323 19.6122 26.3479 19.1269 27.1244 18.7812C27.9009 18.4309 28.7768 18.2557 29.7522 18.2557C30.7371 18.2557 31.6059 18.4285 32.3588 18.7741C33.1163 19.1198 33.7129 19.5956 34.1485 20.2017C34.5841 20.803 34.8114 21.4943 34.8303 22.2756H32.7139ZM42.5736 22.0909V23.7955H36.6148V22.0909H42.5736ZM38.2128 19.4773H40.3364V29.7969C40.3364 30.2088 40.3979 30.5189 40.521 30.7273C40.6441 30.9309 40.8028 31.0705 40.9969 31.1463C41.1958 31.2173 41.4112 31.2528 41.6432 31.2528C41.8137 31.2528 41.9628 31.241 42.0906 31.2173C42.2185 31.1937 42.3179 31.1747 42.3889 31.1605L42.7725 32.9148C42.6494 32.9621 42.4742 33.0095 42.2469 33.0568C42.0196 33.1089 41.7355 33.1373 41.3946 33.142C40.8359 33.1515 40.3151 33.0521 39.8321 32.8438C39.3492 32.6354 38.9585 32.3134 38.6602 31.8778C38.3619 31.4422 38.2128 30.8954 38.2128 30.2372V19.4773ZM48.0974 33.2415C47.4061 33.2415 46.7811 33.1136 46.2224 32.858C45.6637 32.5975 45.221 32.2211 44.8943 31.7287C44.5723 31.2363 44.4113 30.6326 44.4113 29.9176C44.4113 29.3021 44.5297 28.7955 44.7664 28.3977C45.0032 28 45.3228 27.6851 45.7252 27.4531C46.1277 27.2211 46.5775 27.0459 47.0747 26.9276C47.5718 26.8092 48.0785 26.7192 48.5945 26.6577C49.248 26.5819 49.7783 26.5204 50.1855 26.473C50.5927 26.4209 50.8886 26.3381 51.0732 26.2244C51.2579 26.1108 51.3502 25.9261 51.3502 25.6705V25.6207C51.3502 25.0005 51.175 24.5199 50.8247 24.179C50.479 23.8381 49.9629 23.6676 49.2764 23.6676C48.5614 23.6676 47.998 23.8262 47.586 24.1435C47.1788 24.456 46.8971 24.804 46.7409 25.1875L44.7451 24.733C44.9819 24.0701 45.3275 23.535 45.782 23.1278C46.2413 22.7159 46.7693 22.4176 47.3659 22.233C47.9624 22.0436 48.5898 21.9489 49.248 21.9489C49.6836 21.9489 50.1452 22.0009 50.6329 22.1051C51.1253 22.2045 51.5846 22.3892 52.0107 22.6591C52.4416 22.929 52.7944 23.3149 53.069 23.8168C53.3436 24.3139 53.4809 24.9602 53.4809 25.7557V33H51.407V31.5085H51.3218C51.1845 31.7831 50.9785 32.053 50.7039 32.3182C50.4293 32.5833 50.0766 32.8035 49.6457 32.9787C49.2148 33.1539 48.6987 33.2415 48.0974 33.2415ZM48.559 31.5369C49.1462 31.5369 49.6481 31.4209 50.0647 31.1889C50.4861 30.9569 50.8057 30.6539 51.0235 30.2798C51.2461 29.901 51.3573 29.4962 51.3573 29.0653V27.6591C51.2816 27.7348 51.1348 27.8059 50.917 27.8722C50.7039 27.9337 50.4601 27.9882 50.1855 28.0355C49.9108 28.0781 49.6433 28.1184 49.3829 28.1562C49.1225 28.1894 48.9047 28.2178 48.7295 28.2415C48.3176 28.2936 47.9411 28.3812 47.6002 28.5043C47.2641 28.6274 46.9942 28.8049 46.7906 29.0369C46.5917 29.2642 46.4923 29.5672 46.4923 29.946C46.4923 30.4716 46.6864 30.8693 47.0747 31.1392C47.4629 31.4044 47.9577 31.5369 48.559 31.5369ZM56.3094 33V22.0909H58.3619V23.8239H58.4756C58.6744 23.2367 59.0248 22.7751 59.5267 22.4389C60.0334 22.098 60.6063 21.9276 61.2455 21.9276C61.378 21.9276 61.5343 21.9323 61.7142 21.9418C61.8989 21.9512 62.0433 21.9631 62.1475 21.9773V24.0085C62.0622 23.9848 61.9107 23.9588 61.6929 23.9304C61.4751 23.8973 61.2573 23.8807 61.0395 23.8807C60.5376 23.8807 60.0902 23.9872 59.6972 24.2003C59.3089 24.4086 59.0012 24.6998 58.7739 25.0739C58.5466 25.4432 58.433 25.8646 58.433 26.3381V33H56.3094ZM69.722 22.0909V23.7955H63.7632V22.0909H69.722ZM65.3612 19.4773H67.4848V29.7969C67.4848 30.2088 67.5464 30.5189 67.6695 30.7273C67.7926 30.9309 67.9512 31.0705 68.1453 31.1463C68.3442 31.2173 68.5596 31.2528 68.7916 31.2528C68.9621 31.2528 69.1112 31.241 69.2391 31.2173C69.3669 31.1937 69.4664 31.1747 69.5374 31.1605L69.9209 32.9148C69.7978 32.9621 69.6226 33.0095 69.3953 33.0568C69.1681 33.1089 68.884 33.1373 68.5431 33.142C67.9843 33.1515 67.4635 33.0521 66.9806 32.8438C66.4976 32.6354 66.107 32.3134 65.8087 31.8778C65.5104 31.4422 65.3612 30.8954 65.3612 30.2372V19.4773ZM79.7291 33L76.5189 22.0909H78.7135L80.8513 30.1023H80.9578L83.1027 22.0909H85.2973L87.428 30.0668H87.5345L89.6581 22.0909H91.8527L88.6496 33H86.4834L84.2675 25.1236H84.1041L81.8882 33H79.7291ZM93.868 33V22.0909H95.9205V23.8239H96.0342C96.233 23.2367 96.5834 22.7751 97.0853 22.4389C97.5919 22.098 98.1649 21.9276 98.8041 21.9276C98.9366 21.9276 99.0929 21.9323 99.2728 21.9418C99.4575 21.9512 99.6019 21.9631 99.7061 21.9773V24.0085C99.6208 23.9848 99.4693 23.9588 99.2515 23.9304C99.0337 23.8973 98.8159 23.8807 98.5981 23.8807C98.0962 23.8807 97.6488 23.9872 97.2558 24.2003C96.8675 24.4086 96.5597 24.6998 96.3325 25.0739C96.1052 25.4432 95.9916 25.8646 95.9916 26.3381V33H93.868ZM101.544 33V22.0909H103.667V33H101.544ZM102.616 20.4077C102.247 20.4077 101.93 20.2846 101.665 20.0384C101.404 19.7874 101.274 19.4891 101.274 19.1435C101.274 18.7931 101.404 18.4948 101.665 18.2486C101.93 17.9976 102.247 17.8722 102.616 17.8722C102.986 17.8722 103.3 17.9976 103.561 18.2486C103.826 18.4948 103.959 18.7931 103.959 19.1435C103.959 19.4891 103.826 19.7874 103.561 20.0384C103.3 20.2846 102.986 20.4077 102.616 20.4077ZM111.617 22.0909V23.7955H105.658V22.0909H111.617ZM107.256 19.4773H109.379V29.7969C109.379 30.2088 109.441 30.5189 109.564 30.7273C109.687 30.9309 109.846 31.0705 110.04 31.1463C110.239 31.2173 110.454 31.2528 110.686 31.2528C110.857 31.2528 111.006 31.241 111.134 31.2173C111.261 31.1937 111.361 31.1747 111.432 31.1605L111.815 32.9148C111.692 32.9621 111.517 33.0095 111.29 33.0568C111.063 33.1089 110.778 33.1373 110.438 33.142C109.879 33.1515 109.358 33.0521 108.875 32.8438C108.392 32.6354 108.002 32.3134 107.703 31.8778C107.405 31.4422 107.256 30.8954 107.256 30.2372V19.4773ZM113.966 33V22.0909H116.089V33H113.966ZM115.038 20.4077C114.669 20.4077 114.352 20.2846 114.086 20.0384C113.826 19.7874 113.696 19.4891 113.696 19.1435C113.696 18.7931 113.826 18.4948 114.086 18.2486C114.352 17.9976 114.669 17.8722 115.038 17.8722C115.407 17.8722 115.722 17.9976 115.983 18.2486C116.248 18.4948 116.38 18.7931 116.38 19.1435C116.38 19.4891 116.248 19.7874 115.983 20.0384C115.722 20.2846 115.407 20.4077 115.038 20.4077ZM121.07 26.5227V33H118.946V22.0909H120.984V23.8665H121.119C121.37 23.2888 121.763 22.8248 122.298 22.4744C122.838 22.1241 123.518 21.9489 124.337 21.9489C125.08 21.9489 125.731 22.1051 126.29 22.4176C126.849 22.7254 127.282 23.1847 127.59 23.7955C127.897 24.4062 128.051 25.1615 128.051 26.0611V33H125.928V26.3168C125.928 25.526 125.722 24.9081 125.31 24.4631C124.898 24.0133 124.332 23.7884 123.612 23.7884C123.12 23.7884 122.682 23.8949 122.298 24.108C121.92 24.321 121.619 24.6335 121.396 25.0455C121.179 25.4527 121.07 25.9451 121.07 26.5227ZM135.473 37.3182C134.607 37.3182 133.861 37.2045 133.236 36.9773C132.616 36.75 132.109 36.4493 131.716 36.0753C131.323 35.7012 131.029 35.2917 130.835 34.8466L132.661 34.0938C132.788 34.3021 132.959 34.5223 133.172 34.7543C133.39 34.991 133.683 35.1922 134.053 35.358C134.427 35.5237 134.907 35.6065 135.494 35.6065C136.299 35.6065 136.965 35.41 137.49 35.017C138.016 34.6288 138.278 34.0085 138.278 33.1562V31.0114H138.144C138.016 31.2434 137.831 31.5014 137.59 31.7855C137.353 32.0696 137.026 32.3158 136.609 32.5241C136.193 32.7325 135.651 32.8366 134.983 32.8366C134.121 32.8366 133.345 32.6354 132.653 32.233C131.967 31.8258 131.422 31.2268 131.02 30.4361C130.622 29.6406 130.423 28.6629 130.423 27.5028C130.423 26.3428 130.62 25.3485 131.013 24.5199C131.411 23.6913 131.955 23.0568 132.646 22.6165C133.338 22.1714 134.121 21.9489 134.997 21.9489C135.674 21.9489 136.221 22.0625 136.638 22.2898C137.055 22.5123 137.379 22.7727 137.611 23.071C137.848 23.3693 138.03 23.6321 138.158 23.8594H138.314V22.0909H140.395V33.2415C140.395 34.179 140.177 34.9484 139.742 35.5497C139.306 36.151 138.716 36.5961 137.973 36.8849C137.234 37.1738 136.401 37.3182 135.473 37.3182ZM135.452 31.0753C136.063 31.0753 136.579 30.9332 137 30.6491C137.426 30.3603 137.748 29.9484 137.966 29.4134C138.189 28.8736 138.3 28.2273 138.3 27.4744C138.3 26.7405 138.191 26.0942 137.973 25.5355C137.755 24.9768 137.436 24.5412 137.014 24.2287C136.593 23.9115 136.072 23.7528 135.452 23.7528C134.813 23.7528 134.28 23.9186 133.854 24.25C133.428 24.5767 133.106 25.0218 132.888 25.5852C132.675 26.1487 132.568 26.7784 132.568 27.4744C132.568 28.1894 132.677 28.8168 132.895 29.3565C133.113 29.8963 133.435 30.3177 133.861 30.6207C134.292 30.9238 134.822 31.0753 135.452 31.0753Z" fill="white"/>
</svg>
