<svg width="100" height="100" viewBox="0 0 100 100" fill="none" xmlns="http://www.w3.org/2000/svg">
<g clip-path="url(#clip0_54_2)">
<path d="M17.0898 86.9258C16.6992 85.2982 16.6992 83.4427 17.0898 81.3594C17.5456 79.2109 18.1641 77.0625 18.9453 74.9141C19.7266 72.7656 20.5729 70.7148 21.4844 68.7617C22.3958 66.7435 23.1445 65.0833 23.7305 63.7812C24.056 63 24.5443 61.8607 25.1953 60.3633C25.9115 58.8659 26.6927 57.1732 27.5391 55.2852C28.4505 53.3971 29.362 51.4115 30.2734 49.3281C31.25 47.2448 32.1615 45.2591 33.0078 43.3711C33.9193 41.4831 34.7005 39.8229 35.3516 38.3906C36.0677 36.8932 36.5885 35.7865 36.9141 35.0703C35.8073 34.875 34.2122 34.9727 32.1289 35.3633C30.1107 35.7539 27.8646 36.2747 25.3906 36.9258C22.9167 37.5117 20.3776 38.1302 17.7734 38.7812C15.1693 39.4323 12.7279 39.9206 10.4492 40.2461C8.23568 40.5065 6.3151 40.5391 4.6875 40.3438C3.125 40.0833 2.14844 39.3997 1.75781 38.293C2.21354 37.4466 3.8737 36.4701 6.73828 35.3633C9.60286 34.2565 13.2487 33.1172 17.6758 31.9453C22.168 30.7083 27.1484 29.4714 32.6172 28.2344C38.151 26.9974 43.7826 25.8255 49.5117 24.7188C55.2409 23.612 60.8398 22.6029 66.3086 21.6914C71.7773 20.7799 76.6602 20.0312 80.957 19.4453C85.2539 18.8594 88.7044 18.4687 91.3086 18.2734C93.9779 18.0781 95.3776 18.1432 95.5078 18.4687C95.7031 18.9896 95.7357 19.6406 95.6055 20.4219C95.4753 21.138 95.0521 21.5937 94.3359 21.7891C91.1458 22.3099 87.6953 22.8958 83.9844 23.5469C80.2734 24.1328 76.4974 24.7839 72.6562 25.5C68.8802 26.151 65.1693 26.8346 61.5234 27.5508C57.8776 28.2018 54.4922 28.8529 51.3672 29.5039C49.349 29.8945 47.3958 31.0664 45.5078 33.0195C43.6198 34.9727 41.7969 37.4141 40.0391 40.3438C38.2812 43.2083 36.5885 46.431 34.9609 50.0117C33.3333 53.5273 31.7708 57.1081 30.2734 60.7539C28.8411 64.3997 27.5065 67.9154 26.2695 71.3008C25.0326 74.6862 23.8932 77.681 22.8516 80.2852C21.8099 82.8242 20.8984 84.8099 20.1172 86.2422C19.3359 87.6745 18.6849 88.2604 18.1641 88C18.0339 87.8698 17.8385 87.6745 17.5781 87.4141C17.3177 87.1536 17.1549 86.9909 17.0898 86.9258Z" fill="white"/>
</g>
<defs>
<clipPath id="clip0_54_2">
<rect width="100" height="100" fill="white"/>
</clipPath>
</defs>
</svg>
