<svg width="100" height="100" viewBox="0 0 100 100" fill="none" xmlns="http://www.w3.org/2000/svg">
<g clip-path="url(#clip0_54_2)">
<path d="M84.5 36.75L68.5 52.75V31.5L84.5 15.5V36.75ZM64.75 38.75L49.75 23.75V1.25L64.75 16.25V38.75ZM99 50.75L84 65.75H61.5L76.5 50.75H99ZM52 31.75H30.75L14.75 15.75H36L52 31.75ZM87.25 86.25H66L50 70.25H71.25L87.25 86.25ZM38 35.75L23 50.75H0.5L15.5 35.75H38ZM49.75 99.75L34.75 84.75V62.25L49.75 77.25V99.75ZM31 48.5V69.5L15 85.5V64.25L31 48.5Z" fill="white"/>
</g>
<defs>
<clipPath id="clip0_54_2">
<rect width="100" height="100" fill="white"/>
</clipPath>
</defs>
</svg>
