<svg width="100" height="100" viewBox="0 0 100 100" fill="none" xmlns="http://www.w3.org/2000/svg">
<g clip-path="url(#clip0_56_2)">
<path d="M30.9199 89.9351L30.0753 88.2361C30.0446 85.1436 30.6451 82.2317 31.877 79.5003L33.2944 78.0893L33.6167 73.1969C35.6222 70.2221 36.5818 66.9905 36.4954 63.5019L38.538 60.7912L36.7309 59.4295C37.451 57.8472 38.1712 56.2649 38.8913 54.6826C39.6114 53.1003 40.181 51.4046 40.5999 49.5953C39.8077 49.7066 39.1372 50.2048 38.5883 51.0898C38.3799 51.523 38.1055 51.9655 37.7651 52.4173C37.5381 52.7185 37.3112 53.0197 37.0842 53.3209L33.4914 53.6238L30.9659 57.2102L30.4028 56.0776C29.4393 56.8862 28.646 57.4689 28.023 57.8258C27.3814 58.0506 26.4664 58.2465 25.2781 58.4135L23.4956 58.664C23.2315 58.7011 22.9014 58.7475 22.5053 58.8032C22.1092 58.8589 21.7698 58.8392 21.4872 58.7443C21.1097 58.932 20.7321 59.1197 20.3546 59.3074C19.977 59.4951 19.5995 59.6828 19.2219 59.8705L16.9288 60.7987L16.5016 62.0705C14.6902 62.5944 13.0387 63.2978 11.5471 64.1806C10.0369 64.9314 8.46991 65.7576 6.84623 66.659L5.03913 65.2972L5.26822 64.0532L3.2074 62.3232L2.98472 60.7388C2.53937 57.5699 3.01612 55.214 4.41499 53.6709C5.92733 51.9773 7.91001 50.7562 10.363 50.0075C12.9295 49.1082 15.5898 48.3977 18.344 47.876L24.0041 46.4746C25.0418 46.1941 26.0135 45.9229 26.9192 45.661C27.8249 45.3991 28.7306 45.1371 29.6363 44.8752L33.3094 46.5806L37.8368 45.7424L35.8937 41.9761L34.1391 42.4247C32.1999 41.0815 29.6202 39.4917 26.4 37.6554C23.3118 35.8004 20.4124 33.8517 17.7017 31.809C15.1231 29.7478 13.7224 27.925 13.4998 26.3406C13.4441 25.9445 13.4637 25.6051 13.5586 25.3225L13.4195 24.3322L23.5352 28.7676L24.64 28.0064C26.2387 29.8014 28.2913 30.994 30.7979 31.5842C33.3044 32.1744 35.7356 32.7079 38.0916 33.1847C40.4475 33.6614 42.2743 34.6838 43.5718 36.2518L43.5065 40.0984L43.6489 39.6744L45.6048 37.7838C45.345 35.9353 45.7093 33.2586 46.6978 29.7535C47.8183 26.23 48.6263 23.3562 49.1216 21.1323L49.8271 21.841L50.5636 21.3336C50.4523 20.5414 50.3502 19.8152 50.2574 19.155C50.2781 18.3442 50.2988 17.5335 50.3195 16.7227L52.1855 17.0663L50.9447 15.423C51.0211 15.0084 51.0036 14.4049 50.8923 13.6127C50.8366 13.2166 50.8851 12.6039 51.0379 11.7746C51.9828 10.8339 52.5038 9.75084 52.6009 8.52541C52.6979 7.29997 52.729 6.08381 52.694 4.87694L54.5911 4.00444C54.8366 3.83528 55.1574 3.72287 55.5535 3.6672C55.9496 3.61153 56.2797 3.56514 56.5438 3.52803C58.7884 3.21257 60.9266 4.05653 62.9585 6.0599C64.9719 7.93124 66.6934 9.64164 68.1229 11.1911L67.3307 11.3024L68.9954 13.0881L66.7858 14.6105C65.4219 17.3604 64.124 20.101 62.8922 22.8324C61.7924 25.5452 60.7018 28.324 59.6205 31.1688C58.2795 32.1652 57.7018 33.3235 57.8873 34.6439C57.2436 35.8115 56.6565 36.9038 56.1262 37.9208C55.596 38.9379 55.075 40.0209 54.5632 41.17L55.2687 41.8787L57.5619 40.9505C58.09 40.8763 58.6099 40.2647 59.1217 39.1156C59.7469 37.8159 61.2674 36.6597 63.6833 35.647C66.2313 34.6157 69.1371 33.736 72.4009 33.008C75.6647 32.2801 78.8717 31.6274 82.022 31.05C85.1723 30.4726 87.6439 29.856 89.4367 29.2001C88.6795 30.5183 87.7242 31.8643 86.5708 33.2382C86.1169 33.8406 85.597 34.4522 85.011 35.0731C84.5571 35.6755 84.1032 36.2779 83.6493 36.8803L82.4331 36.8492L75.467 40.4538C74.2044 40.0927 72.6489 40.042 70.8004 40.3018C69.348 40.5059 67.9895 40.8988 66.7248 41.4805C65.4415 41.9301 64.1769 42.5118 62.9307 43.2255L61.1204 43.2779L56.9859 45.4747L64.6447 48.2357L64.5301 48.8577L67.0117 52.1443C67.841 52.297 68.5198 52.3363 69.0479 52.2621L71.112 52.5779L72.1268 54.051L72.6097 53.1753C73.8722 53.5364 74.9738 54.1894 75.9145 55.1344L75.6297 55.9823C77.3462 55.741 78.7315 56.0176 79.7856 56.8119L80.6025 58.3129C81.7908 58.1459 82.714 58.4874 83.372 59.3374C84.03 60.1874 85.0853 60.5104 86.5377 60.3062L86.7325 61.6926C86.6561 62.1073 86.6643 62.6447 86.7571 63.3049C86.9798 64.8893 87.4191 66.5779 88.075 68.3708C87.8252 70.4255 86.6326 72.4782 84.4972 74.5286C83.0284 73.6579 81.6823 72.7026 80.459 71.6628C79.2172 70.4908 77.9753 69.3189 76.7335 68.147C73.5689 66.7068 70.5271 65.1819 67.608 63.5725C64.6889 61.9631 61.7606 60.2877 58.823 58.5463L58.854 57.3301L56.5919 57.0421L52.1577 54.2319L52.2722 53.6099L52.0463 53.4397L50.5733 54.4546L49.4438 53.6035C49.027 54.4699 48.6762 55.3271 48.3915 56.175C48.1067 57.0229 47.8219 57.8707 47.5371 58.7186L45.2344 63.8894C44.8568 64.0771 43.9768 65.4799 42.5944 68.0978C41.1934 70.5836 39.65 73.4934 37.9642 76.8271C36.2599 80.0288 34.7165 82.9386 33.334 85.5565C32.0836 88.1558 31.2789 89.6153 30.9199 89.9351ZM53.3214 15.089L54.5996 12.6877L52.6191 12.9661L52.3033 15.0301L53.3214 15.089ZM90.6711 33.6718L89.4549 33.6407L88.7216 32.734C89.7615 31.5107 91.0365 30.5236 92.5467 29.7728L93.4503 30.4537C92.3362 31.1488 91.4098 32.2215 90.6711 33.6718ZM41.5227 41.7909L42.4573 41.2556L41.8075 40.943L41.5227 41.7909ZM75.9252 37.9658L77.0857 37.6007L77.683 36.103L76.4947 36.27L75.6158 37.2014L75.9252 37.9658ZM73.737 42.5146L72.9169 42.4279L71.9855 41.549L72.3538 41.2952L74.2755 42.035L73.737 42.5146ZM62.9671 52.1068L63.5335 51.8253L63.2862 48.6286L62.0668 50.0117L62.9671 52.1068ZM23.6968 57.222L23.5298 56.0337L22.258 55.6065L21.6917 55.8881L23.6968 57.222ZM18.7455 57.9178L20.8963 57.4136L19.315 56.2221L18.2381 57.1813L18.7455 57.9178ZM26.6676 56.8045L26.8967 55.5605L25.8508 55.3035L24.7738 56.2628L26.6676 56.8045ZM13.2214 61.7237L13.8156 61.6402L13.8745 60.6221L12.3767 60.0247L11.7515 61.3244L13.2214 61.7237ZM61.2863 57.3922L61.1193 56.2039L59.8197 55.5787L59.2534 55.8602L61.2863 57.3922ZM64.2572 56.9747L64.4863 55.7307L63.2423 55.5016L62.3633 56.433L64.2572 56.9747ZM50.3591 61.5535L49.0873 61.1263L49.7125 59.8266L51.4083 60.3962L51.1514 61.4421L50.3591 61.5535ZM57.2289 63.0116L56.3254 62.3307L56.3286 60.9165L57.1797 59.787C57.6871 60.5236 58.0151 61.42 58.1635 62.4763L57.2289 63.0116ZM27.5402 96.0651L27.7414 94.6231L26.5595 91.9617L27.4106 90.8322L27.8067 90.7765L29.1064 91.4018L28.8184 93.6638C28.6842 94.6252 28.3902 95.4071 27.9363 96.0094L27.5402 96.0651Z" fill="white"/>
</g>
<defs>
<clipPath id="clip0_56_2">
<rect width="100" height="100" fill="white"/>
</clipPath>
</defs>
</svg>
