<svg width="100" height="100" viewBox="0 0 100 100" fill="none" xmlns="http://www.w3.org/2000/svg">
<g clip-path="url(#clip0_54_2)">
<path d="M100.525 14.785H75.415V17.485H85V19.51H95.395V21.535H95.125V23.56H99.04V26.26H84.325V26.935H81.49V27.88C81.49 28.51 81.355 29.095 81.085 29.635H90.67C90.04 30.895 89.005 31.525 87.565 31.525H65.155V31.66H66.505V34.36H66.775V37.06H66.1V39.76H64.345V41.785H71.095V43.135H65.425V45.16H62.455V47.86H67.585V49.21H66.64V51.91H65.695V54.61H64.075V57.31H62.59V59.335H67.585V61.36H65.56V64.06H66.37V64.735H67.315V66.085H74.065V68.11H69.475V70.81H71.5V73.51H65.83V76.21H68.125V77.56H69.07V79.585H71.23V82.285H70.42V84.31H66.91V86.335H66.505V87.685H66.37V89.71H67.855V91.735H66.64V93.355C66.64 93.805 66.595 94.165 66.505 94.435H65.155C64.885 95.335 64.39 96.01 63.67 96.46H63.94C63.49 96.82 62.86 97 62.05 97H35.05C34.33 97 33.655 96.82 33.025 96.46H32.755C32.125 96.01 31.63 95.335 31.27 94.435H32.485C32.395 94.165 32.35 93.805 32.35 93.355V91.735H33.565V89.71H32.08V87.685H32.215V86.335H32.62V84.31H36.13V82.285H36.94V79.585H34.78V77.56H33.835V76.21H31.54V73.51H37.21V70.81H35.185V68.11H39.775V66.085H33.025V64.735H32.08V64.06H31.27V61.36H33.295V59.335H28.3V57.31H29.785V54.61H31.405V51.91H32.35V49.21H33.295V47.86H28.165V45.16H31.135V43.135H36.805V41.785H30.055V39.76H31.81V37.06H32.485V34.36H32.215V31.66H30.865V31.525H8.455C7.105 31.525 6.025 30.895 5.215 29.635H-4.37C-4.46 29.365 -4.55 29.095 -4.64 28.825C-4.82 28.555 -4.91 28.24 -4.91 27.88V26.935H-2.075V26.26H12.64V23.56H8.725V21.535H8.995V19.51H-1.4L-1.4 17.485H-10.985V14.785H14.125V12.76H0.0849999L0.0849999 10.06H2.785V7.36H6.295V6.685H8.32V6.14499C8.32 5.245 8.59 4.525 9.13 3.985H6.16C6.88 2.995 7.87 2.49999 9.13 2.49999L88.24 2.49999C89.5 2.49999 90.49 2.995 91.21 3.985H94.045C94.495 4.615 94.72 5.33499 94.72 6.14499V6.685H92.695V7.36H89.185V10.06H86.485V12.76H100.525V14.785Z" fill="white"/>
</g>
<defs>
<clipPath id="clip0_54_2">
<rect width="100" height="100" fill="white"/>
</clipPath>
</defs>
</svg>
